<svg width="32" height="32" viewBox="0 0 32 32" fill="none" xmlns="http://www.w3.org/2000/svg">
    <path d="M25.3333 4H6.66667C5.18667 4 4 5.18667 4 6.66667V25.3333C4 26.0406 4.28095 26.7189 4.78105 27.219C5.28115 27.719 5.95942 28 6.66667 28H25.3333C26.0406 28 26.7189 27.719 27.219 27.219C27.719 26.7189 28 26.0406 28 25.3333V6.66667C28 5.18667 26.8 4 25.3333 4ZM16 22.6667C13.4267 22.6667 11.3333 20.5733 11.3333 18C11.3333 15.4267 13.4267 13.3333 16 13.3333V10.6667L20 14.6667L16 18.6667V16C14.5333 16 13.3333 17.2 13.3333 18.6667C13.3333 20.1333 14.5333 21.3333 16 21.3333C17.4667 21.3333 18.6667 20.1333 18.6667 18.6667H21.3333C21.3333 21.6 18.9333 24 16 24V22.6667ZM20 12H12V9.33333H20V12Z" fill="currentColor"/>
</svg>
