<svg width="32" height="32" viewBox="0 0 32 32" fill="none" xmlns="http://www.w3.org/2000/svg">
    <path d="M26.6666 7.99992H16L13.3333 5.33325H5.33329C3.86663 5.33325 2.66663 6.53325 2.66663 7.99992V23.9999C2.66663 25.4666 3.86663 26.6666 5.33329 26.6666H26.6666C28.1333 26.6666 29.3333 25.4666 29.3333 23.9999V10.6666C29.3333 9.19992 28.1333 7.99992 26.6666 7.99992ZM26.6666 23.9999H21.3333V21.3333H18.6666V23.9999H5.33329V10.6666H18.6666V13.3333H21.3333V10.6666H26.6666V23.9999ZM21.3333 15.9999V13.3333H24V15.9999H21.3333ZM18.6666 15.9999H21.3333V18.6666H18.6666V15.9999ZM24 21.3333H21.3333V18.6666H24V21.3333Z" fill="currentColor"/>
</svg>
