<svg width="32" height="32" viewBox="0 0 32 32" fill="none" xmlns="http://www.w3.org/2000/svg">
    <path d="M16 22.6667V20H18.6667V22.6667H16ZM18.6667 17.3333V14.6667H16V17.3333H18.6667ZM18.6667 12V9.33333H16V12H18.6667ZM13.3333 14.6667H16V12H13.3333V14.6667ZM13.3333 20H16V17.3333H13.3333V20ZM28 6.66667V25.3333C28 26.8 26.8 28 25.3333 28H6.66667C5.2 28 4 26.8 4 25.3333V6.66667C4 5.2 5.2 4 6.66667 4H25.3333C26.8 4 28 5.2 28 6.66667ZM25.3333 6.66667H16V9.33333H13.3333V6.66667H6.66667V25.3333H25.3333V6.66667Z" fill="currentColor"/>
</svg>
