<svg width="32" height="32" viewBox="0 0 32 32" fill="none" xmlns="http://www.w3.org/2000/svg">
    <path d="M18.6667 22.6667H16V20H13.3333V17.3333H16V20H18.6667M18.6667 12H16V14.6667H18.6667V17.3333H16V14.6667H13.3333V12H16V9.33333H13.3333V6.66667H16V9.33333H18.6667M25.3333 4H6.66667C5.18667 4 4 5.18667 4 6.66667V25.3333C4 26.0406 4.28095 26.7189 4.78105 27.219C5.28115 27.719 5.95942 28 6.66667 28H25.3333C26.0406 28 26.7189 27.719 27.219 27.219C27.719 26.7189 28 26.0406 28 25.3333V6.66667C28 5.18667 26.8 4 25.3333 4Z" fill="currentColor"/>
</svg>
